<?xml version="1.0" encoding="utf-8"?>
<!-- Generator: Adobe Illustrator 16.0.0, SVG Export Plug-In . SVG Version: 6.00 Build 0)  -->
<!DOCTYPE svg PUBLIC "-//W3C//DTD SVG 1.1//EN" "http://www.w3.org/Graphics/SVG/1.1/DTD/svg11.dtd">
<svg version="1.1" id="Layer_1" xmlns="http://www.w3.org/2000/svg" xmlns:xlink="http://www.w3.org/1999/xlink" x="0px" y="0px"
	 width="1000px" height="300px" viewBox="0 0 1000 300" enable-background="new 0 0 1000 300" xml:space="preserve">
<g>
	<path fill="#2E407B" d="M143.133,49.348h27.155l-13.039,52.788h51.375l13.04-52.788h26.97l-33.088,133.957h-26.971l14.29-57.849
		h-51.375L137.2,183.305h-27.155L143.133,49.348z"/>
	<path fill="#2E407B" d="M282.035,49.348h83.301l-5.538,22.417h-56.146l-7.635,30.913h47.706l-5.538,22.417H290.48l-8.84,35.794
		h58.163l-5.538,22.417h-85.319L282.035,49.348z"/>
	<path fill="#2E407B" d="M394.882,49.348h27.155l-27.551,111.54h55.227l-5.538,22.417h-82.383L394.882,49.348z"/>
	<path fill="#2E407B" d="M500.939,49.348h44.584c30.093,0,50.621,10.485,42.806,42.122c-7.546,30.551-34.241,44.292-63.414,44.292
		H506.75l-11.745,47.544H467.85L500.939,49.348z M528.302,114.608c18.717,0,29.627-7.774,33.422-23.139
		c3.843-15.548-4.772-20.79-23.485-20.79h-15.413l-10.851,43.929H528.302z"/>
	<path fill="#2E407B" d="M604.376,123.104l18.22-73.756h27.153l-18.798,76.108c-6.879,27.839,0.709,37.241,16.489,37.241
		c16.146,0,28.742-9.402,35.62-37.241l18.799-76.108h26.054l-18.22,73.756c-10.984,44.471-34.761,62.732-67.97,62.732
		C608.698,185.836,593.393,167.575,604.376,123.104z"/>
	<path fill="#2E407B" d="M720.495,166.31l20.15-18.438c7.536,8.858,18.907,14.826,30.834,14.826
		c14.128,0,23.123-5.968,25.445-15.366c2.456-9.945-5.042-13.018-15.9-18.08l-16.289-7.591
		c-12.377-5.605-23.459-16.452-18.637-35.977c5.402-21.874,29.004-38.686,56.524-38.686c15.782,0,30.044,6.146,38.328,17.174
		l-17.913,16.812c-6.881-7.05-14.892-11.028-26.084-11.028c-11.926,0-20.743,5.243-22.932,14.101
		c-2.366,9.582,6.327,13.017,16.771,17.536l15.965,7.413c14.86,6.689,23.144,16.991,18.365,36.335
		c-5.403,21.875-28.535,40.496-59.911,40.496C747.049,185.836,730.626,178.784,720.495,166.31z"/>
</g>
<linearGradient id="SVGID_1_" gradientUnits="userSpaceOnUse" x1="92.8101" y1="234.4609" x2="906.6006" y2="234.4609">
	<stop  offset="0" style="stop-color:#2E407B"/>
	<stop  offset="0.1628" style="stop-color:#31437D;stop-opacity:0.8372"/>
	<stop  offset="0.3033" style="stop-color:#3C4D84;stop-opacity:0.6967"/>
	<stop  offset="0.4356" style="stop-color:#4E5D8F;stop-opacity:0.5644"/>
	<stop  offset="0.5628" style="stop-color:#67749F;stop-opacity:0.4372"/>
	<stop  offset="0.6866" style="stop-color:#8791B3;stop-opacity:0.3134"/>
	<stop  offset="0.8076" style="stop-color:#AFB6CC;stop-opacity:0.1924"/>
	<stop  offset="0.9243" style="stop-color:#DDE0E9;stop-opacity:0.0757"/>
	<stop  offset="1" style="stop-color:#FFFFFF;stop-opacity:0"/>
</linearGradient>
<path fill="url(#SVGID_1_)" d="M92.81,211.191l9.691,39.271c0,0,667.026,30.729,804.1-34.17
	C906.601,216.292,367.375,276.618,92.81,211.191z"/>
</svg>
